# xmcd
#
# Track frame offsets: 
#        187
#        28370
#        53575
#        79617
#        109642
#        137232
#        170932
#        194260
#        219037
#        251480
#
# Disc length: 3789 seconds
#
# Revision: 2
# Processed by: cddbd v1.5.2PL0 Copyright (c) Steve Scherf et al.
# Submitted via: ExactAudioCopy v0.95b4
#
DISCID=870ecb0a
DTITLE=Jia Peng Fang - Moon Lit Night
DYEAR=1994
DGENRE=New Age
TTITLE0=月夜
TTITLE1=雨打芭蕉
TTITLE2=懷鄉曲
TTITLE3=陽關三疊
TTITLE4=漢宮秋月
TTITLE5=草原上
TTITLE6=流波曲
TTITLE7=月芽五更
TTITLE8=孔雀飛舞
TTITLE9=陜北抒懷
EXTD=YEAR: 1994
EXTT0=
EXTT1=
EXTT2=
EXTT3=
EXTT4=
EXTT5=
EXTT6=
EXTT7=
EXTT8=
EXTT9=
PLAYORDER=
